PathFileType	4	(X/Y/Z)	Patient4_TMGait_0pt2_03_left_05.trc.trc
DataRate	CameraRate	NumFrames	NumMarkers	Units	OrigDataRate	OrigDataStartFrame	OrigNumFrames
43.887147335423	43.887147335423	6	33	mm	43.887147335423	106	       141
Frame#	Time	Sacral			L.Shoulder			Chest			R.Shoulder			Neck			R.ASIS			L.ASIS			R.Thigh.Superior			R.Thigh.Lateral			R.Thigh.Inferior			R.Patella			L.Thigh.Superior			L.Thigh.Lateral			L.Thigh.Inferior			L.Patella			L.Shank.Superior			L.Shank.Lateral			L.Shank.Inferior			R.Shank.Superior			R.Shank.Lateral			R.Shank.Inferior			R.Heel			R.Midfoot.Superior			R.Midfoot.Lateral			R.Toe			L.Heel			L.Midfoot.Lateral			L.Midfoot.Superior			L.Toe			L.Elbow			L.Wrist			R.Elbow			R.Wrist			
		X1	Y1	Z1	X2	Y2	Z2	X3	Y3	Z3	X4	Y4	Z4	X5	Y5	Z5	X6	Y6	Z6	X7	Y7	Z7	X8	Y8	Z8	X9	Y9	Z9	X10	Y10	Z10	X11	Y11	Z11	X12	Y12	Z12	X13	Y13	Z13	X14	Y14	Z14	X15	Y15	Z15	X16	Y16	Z16	X17	Y17	Z17	X18	Y18	Z18	X19	Y19	Z19	X20	Y20	Z20	X21	Y21	Z21	X22	Y22	Z22	X23	Y23	Z23	X24	Y24	Z24	X25	Y25	Z25	X26	Y26	Z26	X27	Y27	Z27	X28	Y28	Z28	X29	Y29	Z29	X30	Y30	Z30	X31	Y31	Z31	X32	Y32	Z32	X33	Y33	Z33	

106	11.772500000000	876.790860111407	985.783406033690	564.336780533834	1032.491248659261	1414.682568609274	362.004028949735	1151.208244157528	1344.958764703835	510.808089814160	1092.438348545968	1421.441690373718	691.718227745899	1040.319229521962	1478.973642627564	518.519699486771	1122.771787103794	924.383799788551	646.637364690542	1068.444669955464	951.456457454429	378.724079048919	1170.826184655861	729.312127882975	587.127046510782	1110.411558656357	607.878769454572	647.814884219389	1171.268779340806	568.318567727397	548.495056289506	1176.871993538525	472.738643555600	545.917957296107	1160.609546871894	775.133067783045	391.180082780373	1116.137859249312	647.752036336671	312.291696929419	1224.568622974250	588.268602689376	368.938196306021	1241.363219894017	501.414955191164	353.263849994479	1179.819343775339	433.560247585901	340.537998914264	1042.393451107253	381.138637598180	295.880983831178	1050.018292454477	247.816215024673	335.996171559647	1131.596231160056	383.847654815342	553.269004486375	1058.571625169482	288.523422755866	627.879273686555	1062.710396844204	195.095066069457	553.462126373815	899.268777924726	44.201777270948	550.129699604310	1075.543282548324	95.472535421421	552.073094741566	994.943949905807	37.311492772387	607.148269744992	1197.926165361280	41.410748110650	557.504706098991	877.143485048726	152.727241014381	378.980619378228	931.284218708345	128.978040782996	288.402601820285	1033.656328996291	150.654616754871	303.164516534147	1122.674313003715	59.783991148180	251.518120763690	923.709850289698	1073.119878143856	267.152198724491	899.719578456367	812.035672985354	282.076441519321	1214.770927946724	1096.784776161470	811.014865484980	1459.800783911749	1038.026127810511	751.971565575195	
107	11.795285714286	875.741537888422	985.252249257042	567.886855445438	1028.892662922285	1414.471550254618	363.820043175055	1150.691076452130	1343.592741128821	509.549454531492	1096.458169263065	1419.813046966101	691.899796872643	1040.954619560638	1478.043245045908	520.014798043331	1123.097008564268	923.195574316051	644.991762395496	1063.865602269025	951.035691869945	378.038852503891	1169.825288347584	728.225768747131	584.665061056004	1110.795526717697	606.757398686353	646.401985584998	1169.904524531299	567.413298405203	545.822766010137	1175.478749210689	471.582776270342	543.170546344266	1156.389474979244	775.505908796002	390.263928085005	1112.003710493440	647.286822083872	312.790625203446	1220.732935059730	588.826435184956	369.029339270550	1239.577303359224	504.055496749148	353.716787398946	1183.076459950420	434.533035090366	340.662380618678	1050.990795197906	370.814828352621	295.514250113789	1070.334122502163	238.040692884314	334.719243753065	1129.655846418805	382.781823675748	551.163227689686	1056.973816134656	287.918115993191	626.692508657521	1059.397728854605	194.471697423452	552.381238676956	894.841188651757	44.402414626318	550.198151491681	1071.047564555644	95.342981507752	551.899215273334	990.494771819626	37.353320295391	607.150432760537	1193.514477142706	40.915068565008	557.467437129067	906.303485134454	127.829587505283	377.153296767206	962.836950346957	109.016922944720	286.652231629032	1063.097314427623	139.434485309149	301.512530700073	1160.001905248084	56.582827958999	250.064268323998	910.088852114883	1076.871634783440	270.578901925460	877.851146414485	816.718684161372	288.151491834365	1232.519583555181	1101.328915961296	807.514283859364	1478.972374778145	1063.688396598499	739.662307443340	
108	11.818071428571	874.661811183870	985.478808612364	571.206189352764	1025.271940928935	1414.982645187820	365.471877539208	1150.141637846535	1342.896749969665	507.989128427193	1100.523526663868	1418.765942786111	691.734006462688	1041.704046185123	1477.734274757378	521.234248136485	1123.189060136414	922.540774801879	643.125189542613	1059.210729756630	951.160594453167	377.153479166047	1168.141430412385	727.410608995803	582.434365770383	1110.098680309813	606.158366254736	645.319623409839	1167.483735458002	566.767299677858	543.659990479871	1172.835455831181	470.860759003578	541.063884544632	1151.665355046195	776.098949302606	389.070129363091	1106.998044222035	647.079639068562	313.030466140813	1216.091789928916	589.530323526750	368.580310119345	1236.851867653861	507.045041373373	353.808645685856	1185.534686498306	436.090353279670	340.618498469444	1059.587243336355	361.382570200220	294.717978671893	1090.431447530173	229.963301027993	333.386805966274	1126.703370722025	382.163905257035	549.638285957115	1054.459266912301	287.578599823418	625.924601150433	1055.650945812862	194.136606541055	551.657996471413	890.369453774568	44.596572264415	550.311708698392	1066.548952879962	95.263005821850	551.834188185595	986.022874738562	37.373043001115	607.189835742383	1189.053585614772	40.535463565127	557.436347385041	935.854223612659	105.808990755532	375.081909938496	994.729430048494	91.316207578954	284.998704559769	1092.517058739581	130.020254032844	300.081007186617	1196.672194577117	54.885148656716	249.693111567096	897.319205527215	1081.372991695536	273.732941610214	859.906250834752	822.280829921466	293.877390620128	1249.442648380816	1106.860536092487	803.288818363337	1495.296775324746	1090.095586972446	727.049490102246	
109	11.840857142857	873.578782506684	986.456127481488	574.182189106963	1021.767271080045	1416.190497772727	366.889982995143	1149.579143188760	1342.891666405933	506.180320823841	1104.482874824815	1418.342320071139	691.209012179400	1042.554084876565	1478.052815759588	522.111213749216	1123.013968725323	922.435756106720	641.153540998173	1054.639602944741	951.835268948051	376.139360950793	1165.775177048703	726.887726180682	580.559083781514	1108.259533931930	606.093984215601	644.640300936019	1164.014373244685	566.389668953389	542.123972237639	1168.944801162448	470.583412896169	539.709875645518	1146.612789114323	776.903611640995	387.668052460314	1101.302881093744	647.162607703744	313.009951526257	1210.805738538506	590.373436879799	367.633014558136	1233.274156731700	510.313218423094	353.585728543174	1187.118573413154	438.216869685333	340.416625876402	1067.927369724013	353.250826669673	293.480897325435	1109.623272081501	223.943535142082	331.993067493769	1122.736580024643	382.008157894650	548.770497723241	1050.993910169453	287.514309195881	625.620748836630	1051.460332294383	194.099073975063	551.319561128960	885.849327151285	44.777171327843	550.463198320528	1062.047650075746	95.227697304595	551.870378373301	981.522370548251	37.372831087579	607.261664332851	1184.540317078375	40.269542104110	557.411333547691	964.728436443510	87.546985215648	372.747695066778	1025.870322592710	76.605419274959	283.410645541300	1120.941295875789	122.807208555642	298.837235893481	1231.468749981922	54.766859091315	250.332662244250	885.672798403741	1086.424133814879	276.609096266103	845.606872852327	828.278632516263	299.257172408252	1265.337076236752	1113.278171697788	798.316122279836	1508.737721821613	1116.899573873506	714.282649971003	
110	11.863642857143	872.504380876242	988.109718013829	576.703669817610	1018.521816853164	1417.998359762796	368.001666579201	1149.034671206317	1343.522666270133	504.179105424842	1108.203709083837	1418.517973274998	690.325861076700	1043.497980119362	1478.941775606612	522.588093724666	1122.550119463160	922.838484005093	639.183900104732	1050.299771585812	953.007872239451	375.058533191639	1162.765773149690	726.644816710417	579.111286998585	1105.286109289819	606.529649179606	644.381586006697	1159.565226030864	566.262826395954	541.260425815383	1163.882220104275	470.723933226309	539.136736190634	1141.425094544708	777.874027944290	386.138480359448	1095.142171450308	647.527269090550	312.743107478972	1205.055814633472	591.311518708042	366.282535492990	1228.959892526985	513.735606093844	353.124316085637	1187.794577518527	440.814294437368	340.070819735127	1075.734507059770	346.643851227310	291.831798678590	1127.297001151763	220.070999192500	330.526651113985	1117.818165813289	382.289952373956	548.564985698274	1046.608538197485	287.707426404975	625.771084598039	1046.846771017913	194.339355854913	551.349848711278	881.281270754142	44.934307499405	550.638980755371	1057.542160809102	95.229177101601	551.989948519892	976.988961392656	37.356265267092	607.356817609348	1179.976445161516	40.106698585683	557.393018641747	991.926899436795	73.435847843362	370.154580751148	1055.236088527389	65.220050395643	281.842394220191	1147.491926139849	117.902144022563	297.716914527412	1263.378323091465	56.100146323250	251.782238216144	875.399441663298	1091.768990841841	279.186976003493	834.567836767017	834.328729245179	304.300362504799	1280.038816353864	1120.430831134847	792.628077499090	1519.326665451599	1143.716686377860	701.506713578065	
111	11.886428571429	871.436726328343	990.306160570597	578.669985916870	1015.668474693516	1420.248409313868	368.735622000149	1148.546378640851	1344.667455605200	502.037607201520	1111.581548050820	1419.206588844800	689.096798323733	1044.531429759099	1480.288048010596	522.620881816266	1121.791970364327	923.655999862281	637.306065192011	1046.317977810686	954.572707541609	373.958592115469	1159.191076612074	726.638792869016	578.110177341920	1101.258210081085	607.388846444974	644.509685267891	1154.263293263796	566.344477220541	541.045642565285	1157.793045615861	471.219999683299	539.294284218628	1136.297003101868	778.928732922865	384.567624304092	1088.762774097013	648.122366685170	312.258527098128	1199.034901681052	592.269467638126	364.663792546615	1224.049696695257	517.143327202652	352.518402869091	1187.573515824576	443.711342514939	339.600381000032	1082.734061309326	341.600130299111	289.842669360250	1142.949507941360	218.187263509858	328.988211280164	1112.071208133213	382.947967162626	548.961971008548	1041.393695735679	288.116067894753	626.316892650177	1041.859087839715	194.811554222544	551.696657953396	876.669031800542	45.056228370865	550.821200512121	1053.028934428504	95.257673375964	552.168024371510	972.419865360033	37.327258648773	607.463511647412	1175.367469368330	40.031536020354	557.382481334923	1016.590880959928	63.403940708348	367.349897760277	1081.934231072088	57.126514257086	280.258924784931	1171.428072642857	115.155490132410	296.653525868241	1291.623145061711	58.604530659241	253.755107959704	866.685279295615	1097.120961341406	281.433511781006	826.331515354260	840.115195527296	309.011473920351	1293.431923514361	1128.126431098259	786.315185497728	1527.163265643873	1170.143109616914	688.864832162552	
